<?xml version="1.0" encoding="utf-8"?>
<!-- Generator: Adobe Illustrator 14.0.0, SVG Export Plug-In . SVG Version: 6.00 Build 43363)  -->
<!DOCTYPE svg PUBLIC "-//W3C//DTD SVG 1.1//EN" "http://www.w3.org/Graphics/SVG/1.1/DTD/svg11.dtd">
<svg version="1.1" id="Layer_1" xmlns="http://www.w3.org/2000/svg" xmlns:xlink="http://www.w3.org/1999/xlink" x="0px" y="0px"
	 width="957px" height="872px" viewBox="0 0 957 872" enable-background="new 0 0 957 872" xml:space="preserve">
<g>
	<path fill="none" stroke="#000000" stroke-width="0.5" stroke-linejoin="round" stroke-miterlimit="10" d="M355.854,834.281
		h580.342 M355.854,834.281v-813.8 M355.854,834.281v-8.233"/>
	<text transform="matrix(1 0 0 1 352.2793 849.9707)" fill="#231F20" font-family="'Helvetica'" font-size="13">0</text>
	
		<line fill="none" stroke="#000000" stroke-width="0.5" stroke-linejoin="round" stroke-miterlimit="10" x1="413.812" y1="834.281" x2="413.812" y2="826.048"/>
	<text transform="matrix(1 0 0 1 410.2373 849.9707)" fill="#231F20" font-family="'Helvetica'" font-size="13">1</text>
	
		<line fill="none" stroke="#000000" stroke-width="0.5" stroke-linejoin="round" stroke-miterlimit="10" x1="471.771" y1="834.281" x2="471.771" y2="826.048"/>
	<text transform="matrix(1 0 0 1 468.1924 849.9707)" fill="#231F20" font-family="'Helvetica'" font-size="13">2</text>
	
		<line fill="none" stroke="#000000" stroke-width="0.5" stroke-linejoin="round" stroke-miterlimit="10" x1="529.729" y1="834.281" x2="529.729" y2="826.048"/>
	<text transform="matrix(1 0 0 1 526.1543 849.9707)" fill="#231F20" font-family="'Helvetica'" font-size="13">3</text>
	
		<line fill="none" stroke="#000000" stroke-width="0.5" stroke-linejoin="round" stroke-miterlimit="10" x1="587.688" y1="834.281" x2="587.688" y2="826.048"/>
	<text transform="matrix(1 0 0 1 584.1123 849.9707)" fill="#231F20" font-family="'Helvetica'" font-size="13">4</text>
	
		<line fill="none" stroke="#000000" stroke-width="0.5" stroke-linejoin="round" stroke-miterlimit="10" x1="645.646" y1="834.281" x2="645.646" y2="826.048"/>
	<text transform="matrix(1 0 0 1 642.0674 849.9707)" fill="#231F20" font-family="'Helvetica'" font-size="13">5</text>
	
		<line fill="none" stroke="#000000" stroke-width="0.5" stroke-linejoin="round" stroke-miterlimit="10" x1="703.604" y1="834.281" x2="703.604" y2="826.048"/>
	<text transform="matrix(1 0 0 1 700.0293 849.9707)" fill="#231F20" font-family="'Helvetica'" font-size="13">6</text>
	
		<line fill="none" stroke="#000000" stroke-width="0.5" stroke-linejoin="round" stroke-miterlimit="10" x1="761.563" y1="834.281" x2="761.563" y2="826.048"/>
	<text transform="matrix(1 0 0 1 757.9873 849.9707)" fill="#231F20" font-family="'Helvetica'" font-size="13">7</text>
	
		<line fill="none" stroke="#000000" stroke-width="0.5" stroke-linejoin="round" stroke-miterlimit="10" x1="819.521" y1="834.281" x2="819.521" y2="826.048"/>
	<text transform="matrix(1 0 0 1 815.9424 849.9707)" fill="#231F20" font-family="'Helvetica'" font-size="13">8</text>
	
		<line fill="none" stroke="#000000" stroke-width="0.5" stroke-linejoin="round" stroke-miterlimit="10" x1="877.479" y1="834.281" x2="877.479" y2="826.048"/>
	<text transform="matrix(1 0 0 1 873.9043 849.9707)" fill="#231F20" font-family="'Helvetica'" font-size="13">9</text>
	
		<line fill="none" stroke="#000000" stroke-width="0.5" stroke-linejoin="round" stroke-miterlimit="10" x1="935.438" y1="834.281" x2="935.438" y2="826.048"/>
	<text transform="matrix(1 0 0 1 928.291 849.9707)" fill="#231F20" font-family="'Helvetica'" font-size="13">10</text>
	
		<line fill="none" stroke="#000000" stroke-width="0.5" stroke-linejoin="round" stroke-miterlimit="10" x1="355.854" y1="822.474" x2="363.979" y2="822.474"/>
	<text transform="matrix(1 0 0 1 142.9839 827.2207)" fill="#231F20" font-family="'Helvetica'" font-size="13">Basalis nucleus cholinergic neuron </text>
	
		<line fill="none" stroke="#000000" stroke-width="0.5" stroke-linejoin="round" stroke-miterlimit="10" x1="355.854" y1="810.665" x2="363.979" y2="810.665"/>
	<text transform="matrix(1 0 0 1 177.3164 815.4209)" fill="#231F20" font-family="'Helvetica'" font-size="13">Neostriatum cholinergic cell </text>
	
		<line fill="none" stroke="#000000" stroke-width="0.5" stroke-linejoin="round" stroke-miterlimit="10" x1="355.854" y1="798.856" x2="363.979" y2="798.856"/>
	<text transform="matrix(1 0 0 1 58.3691 803.6074)" fill="#231F20" font-family="'Helvetica'" font-size="13">Substantia nigra pars compacta dopaminergic cell </text>
	
		<line fill="none" stroke="#000000" stroke-width="0.5" stroke-linejoin="round" stroke-miterlimit="10" x1="355.854" y1="787.048" x2="363.979" y2="787.048"/>
	<text transform="matrix(1 0 0 1 165.2012 791.8076)" fill="#231F20" font-family="'Helvetica'" font-size="13">Olfactory cortex semilunar cell </text>
	
		<line fill="none" stroke="#000000" stroke-width="0.5" stroke-linejoin="round" stroke-miterlimit="10" x1="355.854" y1="775.24" x2="363.979" y2="775.24"/>
	<text transform="matrix(1 0 0 1 196.6484 779.9941)" fill="#231F20" font-family="'Helvetica'" font-size="13">Dorsal root ganglion cell </text>
	
		<line fill="none" stroke="#000000" stroke-width="0.5" stroke-linejoin="round" stroke-miterlimit="10" x1="355.854" y1="763.431" x2="363.979" y2="763.431"/>
	<text transform="matrix(1 0 0 1 149.2891 768.1943)" fill="#231F20" font-family="'Helvetica'" font-size="13">Medial vestibular nucleus neuron </text>
	
		<line fill="none" stroke="#000000" stroke-width="0.5" stroke-linejoin="round" stroke-miterlimit="10" x1="355.854" y1="751.731" x2="363.979" y2="751.731"/>
	<text transform="matrix(1 0 0 1 166.7217 756.4824)" fill="#231F20" font-family="'Helvetica'" font-size="13">Thalamic reticular nucleus cell </text>
	
		<line fill="none" stroke="#000000" stroke-width="0.5" stroke-linejoin="round" stroke-miterlimit="10" x1="355.854" y1="739.923" x2="363.979" y2="739.923"/>
	<text transform="matrix(1 0 0 1 212.8711 744.6826)" fill="#231F20" font-family="'Helvetica'" font-size="13">DRG temperature cell </text>
	
		<line fill="none" stroke="#000000" stroke-width="0.5" stroke-linejoin="round" stroke-miterlimit="10" x1="355.854" y1="728.115" x2="363.979" y2="728.115"/>
	<text transform="matrix(1 0 0 1 180.7617 732.8691)" fill="#231F20" font-family="'Helvetica'" font-size="13">Locus coeruleus NA neuron </text>
	
		<line fill="none" stroke="#000000" stroke-width="0.5" stroke-linejoin="round" stroke-miterlimit="10" x1="355.854" y1="716.306" x2="363.979" y2="716.306"/>
	<text transform="matrix(1 0 0 1 80.4287 721.0693)" fill="#231F20" font-family="'Helvetica'" font-size="13">Paraventricular hypothalamic nucleus neurons</text>
	<text transform="matrix(1 0 0 1 335.0947 721.0693)" fill="#231F20" font-family="'Helvetica'" font-size="13"> </text>
	
		<line fill="none" stroke="#000000" stroke-width="0.5" stroke-linejoin="round" stroke-miterlimit="10" x1="355.854" y1="704.498" x2="363.979" y2="704.498"/>
	<text transform="matrix(1 0 0 1 189.4063 709.2559)" fill="#231F20" font-family="'Helvetica'" font-size="13">Neocortex bipolar neuron </text>
	
		<line fill="none" stroke="#000000" stroke-width="0.5" stroke-linejoin="round" stroke-miterlimit="10" x1="355.854" y1="692.69" x2="363.979" y2="692.69"/>
	<text transform="matrix(1 0 0 1 23.9189 697.4561)" fill="#231F20" font-family="'Helvetica'" font-size="13">Hippocampus CA1 oriens lacunosum moleculare neuron </text>
	
		<line fill="none" stroke="#000000" stroke-width="0.5" stroke-linejoin="round" stroke-miterlimit="10" x1="355.854" y1="680.881" x2="363.979" y2="680.881"/>
	<text transform="matrix(1 0 0 1 59.6553 685.6426)" fill="#231F20" font-family="'Helvetica'" font-size="13">Substantia nigra pars reticulata interneuron GABA </text>
	
		<line fill="none" stroke="#000000" stroke-width="0.5" stroke-linejoin="round" stroke-miterlimit="10" x1="355.854" y1="669.181" x2="363.979" y2="669.181"/>
	<text transform="matrix(1 0 0 1 59.98 673.9443)" fill="#231F20" font-family="'Helvetica'" font-size="13">Hippocampus CA3 lacunosum moleculare neuron </text>
	
		<line fill="none" stroke="#000000" stroke-width="0.5" stroke-linejoin="round" stroke-miterlimit="10" x1="355.854" y1="657.373" x2="363.979" y2="657.373"/>
	<text transform="matrix(1 0 0 1 171.4023 662.1309)" fill="#231F20" font-family="'Helvetica'" font-size="13">Neocortex layer 4 stellate cell </text>
	
		<line fill="none" stroke="#000000" stroke-width="0.5" stroke-linejoin="round" stroke-miterlimit="10" x1="355.854" y1="645.565" x2="363.979" y2="645.565"/>
	<text transform="matrix(1 0 0 1 194.6719 650.3311)" fill="#231F20" font-family="'Helvetica'" font-size="13">Neocortex Martinotti cell </text>
	
		<line fill="none" stroke="#000000" stroke-width="0.5" stroke-linejoin="round" stroke-miterlimit="10" x1="355.854" y1="633.756" x2="363.979" y2="633.756"/>
	<text transform="matrix(1 0 0 1 110.0308 638.5176)" fill="#231F20" font-family="'Helvetica'" font-size="13">Nucleus of the solitary tract principal cell </text>
	
		<line fill="none" stroke="#000000" stroke-width="0.5" stroke-linejoin="round" stroke-miterlimit="10" x1="355.854" y1="621.948" x2="363.979" y2="621.948"/>
	<text transform="matrix(1 0 0 1 187.0156 626.708)" fill="#231F20" font-family="'Helvetica'" font-size="13">Dentate gyrus granule cell </text>
	
		<line fill="none" stroke="#000000" stroke-width="0.5" stroke-linejoin="round" stroke-miterlimit="10" x1="355.854" y1="610.141" x2="363.979" y2="610.141"/>
	<text transform="matrix(1 0 0 1 21.4092 614.9043)" fill="#231F20" font-family="'Helvetica'" font-size="13">Spinal cord intermediate horn motor neuron sympathetic</text>
	<text transform="matrix(1 0 0 1 334.7559 614.9043)" fill="#231F20" font-family="'Helvetica'" font-size="13"> </text>
	
		<line fill="none" stroke="#000000" stroke-width="0.5" stroke-linejoin="round" stroke-miterlimit="10" x1="355.854" y1="598.331" x2="363.979" y2="598.331"/>
	<text transform="matrix(1 0 0 1 149.6396 603.0947)" fill="#231F20" font-family="'Helvetica'" font-size="13">Hippocampus CA3 pyramidal cell </text>
	
		<line fill="none" stroke="#000000" stroke-width="0.5" stroke-linejoin="round" stroke-miterlimit="10" x1="355.854" y1="586.631" x2="363.979" y2="586.631"/>
	<text transform="matrix(1 0 0 1 198.0122 591.3926)" fill="#231F20" font-family="'Helvetica'" font-size="13">Cerebellum Purkinje cell </text>
	
		<line fill="none" stroke="#000000" stroke-width="0.5" stroke-linejoin="round" stroke-miterlimit="10" x1="355.854" y1="574.823" x2="363.979" y2="574.823"/>
	<text transform="matrix(1 0 0 1 141.5811 579.583)" fill="#231F20" font-family="'Helvetica'" font-size="13">Neocortex pyramidal cell layer 5−6 </text>
	
		<line fill="none" stroke="#000000" stroke-width="0.5" stroke-linejoin="round" stroke-miterlimit="10" x1="355.854" y1="563.016" x2="363.979" y2="563.016"/>
	<text transform="matrix(1 0 0 1 141.5811 567.7793)" fill="#231F20" font-family="'Helvetica'" font-size="13">Neocortex pyramidal cell layer 2−3 </text>
	
		<line fill="none" stroke="#000000" stroke-width="0.5" stroke-linejoin="round" stroke-miterlimit="10" x1="355.854" y1="551.206" x2="363.979" y2="551.206"/>
	<text transform="matrix(1 0 0 1 139.4609 555.9697)" fill="#231F20" font-family="'Helvetica'" font-size="13">Hypoglossal nucleus motor neuron </text>
	
		<line fill="none" stroke="#000000" stroke-width="0.5" stroke-linejoin="round" stroke-miterlimit="10" x1="355.854" y1="539.398" x2="363.979" y2="539.398"/>
	<text transform="matrix(1 0 0 1 159.3242 544.166)" fill="#231F20" font-family="'Helvetica'" font-size="13">Trochlear nucleus motoneurons</text>
	<text transform="matrix(1 0 0 1 340.0371 544.166)" fill="#231F20" font-family="'Helvetica'" font-size="13"> </text>
	
		<line fill="none" stroke="#000000" stroke-width="0.5" stroke-linejoin="round" stroke-miterlimit="10" x1="355.854" y1="527.59" x2="363.979" y2="527.59"/>
	<text transform="matrix(1 0 0 1 164.1216 532.3564)" fill="#231F20" font-family="'Helvetica'" font-size="13">Olfactory cortex pyramidal cell </text>
	
		<line fill="none" stroke="#000000" stroke-width="0.5" stroke-linejoin="round" stroke-miterlimit="10" x1="355.854" y1="515.781" x2="363.979" y2="515.781"/>
	<text transform="matrix(1 0 0 1 149.6396 520.5527)" fill="#231F20" font-family="'Helvetica'" font-size="13">Hippocampus CA1 pyramidal cell </text>
	
		<line fill="none" stroke="#000000" stroke-width="0.5" stroke-linejoin="round" stroke-miterlimit="10" x1="355.854" y1="504.081" x2="363.979" y2="504.081"/>
	<text transform="matrix(1 0 0 1 218.8906 508.8447)" fill="#231F20" font-family="'Helvetica'" font-size="13">Inferior olive neuron </text>
	
		<line fill="none" stroke="#000000" stroke-width="0.5" stroke-linejoin="round" stroke-miterlimit="10" x1="355.854" y1="492.273" x2="363.979" y2="492.273"/>
	<text transform="matrix(1 0 0 1 113.7866 497.041)" fill="#231F20" font-family="'Helvetica'" font-size="13">medial entorhinal cortex layer II neurons</text>
	<text transform="matrix(1 0 0 1 336.0596 497.041)" fill="#231F20" font-family="'Helvetica'" font-size="13"> </text>
	
		<line fill="none" stroke="#000000" stroke-width="0.5" stroke-linejoin="round" stroke-miterlimit="10" x1="355.854" y1="480.465" x2="363.979" y2="480.465"/>
	<text transform="matrix(1 0 0 1 93.624 485.2314)" fill="#231F20" font-family="'Helvetica'" font-size="13">Cochlear nucleus (dorsal) pyramidal neuron </text>
	
		<line fill="none" stroke="#000000" stroke-width="0.5" stroke-linejoin="round" stroke-miterlimit="10" x1="355.854" y1="468.656" x2="363.979" y2="468.656"/>
	<text transform="matrix(1 0 0 1 192.5781 473.4277)" fill="#231F20" font-family="'Helvetica'" font-size="13">Subiculum pyramidal cell </text>
	
		<line fill="none" stroke="#000000" stroke-width="0.5" stroke-linejoin="round" stroke-miterlimit="10" x1="355.854" y1="456.849" x2="363.979" y2="456.849"/>
	<text transform="matrix(1 0 0 1 152.8633 461.5957)" fill="#231F20" font-family="'Helvetica'" font-size="13">Suprachiasmatic nucleus neuron </text>
	
		<line fill="none" stroke="#000000" stroke-width="0.5" stroke-linejoin="round" stroke-miterlimit="10" x1="355.854" y1="445.04" x2="363.979" y2="445.04"/>
	<text transform="matrix(1 0 0 1 115.71 449.7959)" fill="#231F20" font-family="'Helvetica'" font-size="13">Cochlear nucleus (dorsal) cartwheel cell </text>
	
		<line fill="none" stroke="#000000" stroke-width="0.5" stroke-linejoin="round" stroke-miterlimit="10" x1="355.854" y1="433.231" x2="363.979" y2="433.231"/>
	<text transform="matrix(1 0 0 1 167.7886 437.9819)" fill="#231F20" font-family="'Helvetica'" font-size="13">Hippocampus CA1 ivy neuron </text>
	
		<line fill="none" stroke="#000000" stroke-width="0.5" stroke-linejoin="round" stroke-miterlimit="10" x1="355.854" y1="421.531" x2="363.979" y2="421.531"/>
	<text transform="matrix(1 0 0 1 168.5029 426.3022)" fill="#231F20" font-family="'Helvetica'" font-size="13">Hippocampus CA1 basket cell </text>
	
		<line fill="none" stroke="#000000" stroke-width="0.5" stroke-linejoin="round" stroke-miterlimit="10" x1="355.854" y1="409.723" x2="363.979" y2="409.723"/>
	<text transform="matrix(1 0 0 1 213.2617 414.4702)" fill="#231F20" font-family="'Helvetica'" font-size="13">Neocortex basket cell </text>
	
		<line fill="none" stroke="#000000" stroke-width="0.5" stroke-linejoin="round" stroke-miterlimit="10" x1="355.854" y1="397.915" x2="363.979" y2="397.915"/>
	<text transform="matrix(1 0 0 1 139.2793 402.6709)" fill="#231F20" font-family="'Helvetica'" font-size="13">Neostriatum medium spiny neuron </text>
	
		<line fill="none" stroke="#000000" stroke-width="0.5" stroke-linejoin="round" stroke-miterlimit="10" x1="355.854" y1="386.106" x2="363.979" y2="386.106"/>
	<text transform="matrix(1 0 0 1 194.3984 390.8569)" fill="#231F20" font-family="'Helvetica'" font-size="13">Neocortex pyramidal cell </text>
	
		<line fill="none" stroke="#000000" stroke-width="0.5" stroke-linejoin="round" stroke-miterlimit="10" x1="355.854" y1="374.298" x2="363.979" y2="374.298"/>
	<text transform="matrix(1 0 0 1 87.6836 379.0576)" fill="#231F20" font-family="'Helvetica'" font-size="13">Spinal cord ventral horn motor neuron alpha </text>
	
		<line fill="none" stroke="#000000" stroke-width="0.5" stroke-linejoin="round" stroke-miterlimit="10" x1="355.854" y1="362.49" x2="363.979" y2="362.49"/>
	<text transform="matrix(1 0 0 1 90.5566 367.2437)" fill="#231F20" font-family="'Helvetica'" font-size="13">Neostriatum gaba/parvalbumin interneuron </text>
	
		<line fill="none" stroke="#000000" stroke-width="0.5" stroke-linejoin="round" stroke-miterlimit="10" x1="355.854" y1="350.681" x2="363.979" y2="350.681"/>
	<text transform="matrix(1 0 0 1 204.915 355.4443)" fill="#231F20" font-family="'Helvetica'" font-size="13">Dentate gyrus hilar cell </text>
	
		<line fill="none" stroke="#000000" stroke-width="0.5" stroke-linejoin="round" stroke-miterlimit="10" x1="355.854" y1="338.981" x2="363.979" y2="338.981"/>
	<text transform="matrix(1 0 0 1 126.2803 343.7319)" fill="#231F20" font-family="'Helvetica'" font-size="13">Hippocampus CA1 neurogliaform cell </text>
	
		<line fill="none" stroke="#000000" stroke-width="0.5" stroke-linejoin="round" stroke-miterlimit="10" x1="355.854" y1="327.173" x2="363.979" y2="327.173"/>
	<text transform="matrix(1 0 0 1 130.6602 331.9326)" fill="#231F20" font-family="'Helvetica'" font-size="13">Hippocampus CA3 trilaminar neuron </text>
	
		<line fill="none" stroke="#000000" stroke-width="0.5" stroke-linejoin="round" stroke-miterlimit="10" x1="355.854" y1="315.365" x2="363.979" y2="315.365"/>
	<text transform="matrix(1 0 0 1 103.3086 320.1187)" fill="#231F20" font-family="'Helvetica'" font-size="13">Medial Nucleus of Trapezoid Body neuron </text>
	
		<line fill="none" stroke="#000000" stroke-width="0.5" stroke-linejoin="round" stroke-miterlimit="10" x1="355.854" y1="303.556" x2="363.979" y2="303.556"/>
	<text transform="matrix(1 0 0 1 152.1094 308.3193)" fill="#231F20" font-family="'Helvetica'" font-size="13">Nucleus accumbens core neuron </text>
	
		<line fill="none" stroke="#000000" stroke-width="0.5" stroke-linejoin="round" stroke-miterlimit="10" x1="355.854" y1="291.748" x2="363.979" y2="291.748"/>
	<text transform="matrix(1 0 0 1 150.8232 296.5054)" fill="#231F20" font-family="'Helvetica'" font-size="13">Nucleus accumbens shell neuron </text>
	
		<line fill="none" stroke="#000000" stroke-width="0.5" stroke-linejoin="round" stroke-miterlimit="10" x1="355.854" y1="279.939" x2="363.979" y2="279.939"/>
	<text transform="matrix(1 0 0 1 226.5859 284.7061)" fill="#231F20" font-family="'Helvetica'" font-size="13">Thalamus relay cell </text>
	
		<line fill="none" stroke="#000000" stroke-width="0.5" stroke-linejoin="round" stroke-miterlimit="10" x1="355.854" y1="268.131" x2="363.979" y2="268.131"/>
	<text transform="matrix(1 0 0 1 98.4199 272.8921)" fill="#231F20" font-family="'Helvetica'" font-size="13">Nucleus accumbens medium spiny neuron </text>
	
		<line fill="none" stroke="#000000" stroke-width="0.5" stroke-linejoin="round" stroke-miterlimit="10" x1="355.854" y1="256.431" x2="363.979" y2="256.431"/>
	<text transform="matrix(1 0 0 1 147.7295 261.1943)" fill="#231F20" font-family="'Helvetica'" font-size="13">Trigeminal nucleus motor neuron </text>
	
		<line fill="none" stroke="#000000" stroke-width="0.5" stroke-linejoin="round" stroke-miterlimit="10" x1="355.854" y1="244.623" x2="363.979" y2="244.623"/>
	<text transform="matrix(1 0 0 1 154.9189 249.3804)" fill="#231F20" font-family="'Helvetica'" font-size="13">Trigeminal nucleus principal cell </text>
	
		<line fill="none" stroke="#000000" stroke-width="0.5" stroke-linejoin="round" stroke-miterlimit="10" x1="355.854" y1="232.814" x2="363.979" y2="232.814"/>
	<text transform="matrix(1 0 0 1 232.3447 237.5811)" fill="#231F20" font-family="'Helvetica'" font-size="13">Retina bipolar cell </text>
	
		<line fill="none" stroke="#000000" stroke-width="0.5" stroke-linejoin="round" stroke-miterlimit="10" x1="355.854" y1="221.006" x2="363.979" y2="221.006"/>
	<text transform="matrix(1 0 0 1 151.9673 225.7671)" fill="#231F20" font-family="'Helvetica'" font-size="13">Entorhinal cortex layer IV neuron </text>
	
		<line fill="none" stroke="#000000" stroke-width="0.5" stroke-linejoin="round" stroke-miterlimit="10" x1="355.854" y1="209.198" x2="363.979" y2="209.198"/>
	<text transform="matrix(1 0 0 1 123.9141 213.958)" fill="#231F20" font-family="'Helvetica'" font-size="13">Hippocampus CA1 radiatum giant cell </text>
	
		<line fill="none" stroke="#000000" stroke-width="0.5" stroke-linejoin="round" stroke-miterlimit="10" x1="355.854" y1="197.39" x2="363.979" y2="197.39"/>
	<text transform="matrix(1 0 0 1 135.2495 202.1538)" fill="#231F20" font-family="'Helvetica'" font-size="13">Lateral amygdala projection neuron </text>
	
		<line fill="none" stroke="#000000" stroke-width="0.5" stroke-linejoin="round" stroke-miterlimit="10" x1="355.854" y1="185.581" x2="363.979" y2="185.581"/>
	<text transform="matrix(1 0 0 1 56.8086 190.3447)" fill="#231F20" font-family="'Helvetica'" font-size="13">Amygdaloid nucleus paracapsular intercalated cell </text>
	
		<line fill="none" stroke="#000000" stroke-width="0.5" stroke-linejoin="round" stroke-miterlimit="10" x1="355.854" y1="173.881" x2="363.979" y2="173.881"/>
	<text transform="matrix(1 0 0 1 168.5029 178.6421)" fill="#231F20" font-family="'Helvetica'" font-size="13">Hippocampus CA3 basket cell </text>
	
		<line fill="none" stroke="#000000" stroke-width="0.5" stroke-linejoin="round" stroke-miterlimit="10" x1="355.854" y1="162.073" x2="363.979" y2="162.073"/>
	<text transform="matrix(1 0 0 1 160.1689 166.833)" fill="#231F20" font-family="'Helvetica'" font-size="13">thalamic parafascicular neurons</text>
	<text transform="matrix(1 0 0 1 337.3457 166.833)" fill="#231F20" font-family="'Helvetica'" font-size="13"> </text>
	
		<line fill="none" stroke="#000000" stroke-width="0.5" stroke-linejoin="round" stroke-miterlimit="10" x1="355.854" y1="150.265" x2="363.979" y2="150.265"/>
	<text transform="matrix(1 0 0 1 80.0781 155.0288)" fill="#231F20" font-family="'Helvetica'" font-size="13">Spinal cord ventral horn interneuron Renshaw </text>
	
		<line fill="none" stroke="#000000" stroke-width="0.5" stroke-linejoin="round" stroke-miterlimit="10" x1="355.854" y1="138.456" x2="363.979" y2="138.456"/>
	<text transform="matrix(1 0 0 1 78.8828 143.2197)" fill="#231F20" font-family="'Helvetica'" font-size="13">Hippocampus CA3 stratum radiatum giant cell </text>
	
		<line fill="none" stroke="#000000" stroke-width="0.5" stroke-linejoin="round" stroke-miterlimit="10" x1="355.854" y1="126.648" x2="363.979" y2="126.648"/>
	<text transform="matrix(1 0 0 1 270.123 131.4155)" fill="#231F20" font-family="'Helvetica'" font-size="13">DRG IA cell </text>
	
		<line fill="none" stroke="#000000" stroke-width="0.5" stroke-linejoin="round" stroke-miterlimit="10" x1="355.854" y1="114.84" x2="363.979" y2="114.84"/>
	<text transform="matrix(1 0 0 1 213.457 119.6064)" fill="#231F20" font-family="'Helvetica'" font-size="13">Cerebellum Golgi cell </text>
	
		<line fill="none" stroke="#000000" stroke-width="0.5" stroke-linejoin="round" stroke-miterlimit="10" x1="355.854" y1="103.031" x2="363.979" y2="103.031"/>
	<text transform="matrix(1 0 0 1 200.626 107.8022)" fill="#231F20" font-family="'Helvetica'" font-size="13">Cerebellum granule cell </text>
	
		<line fill="none" stroke="#000000" stroke-width="0.5" stroke-linejoin="round" stroke-miterlimit="10" x1="355.854" y1="91.331" x2="363.979" y2="91.331"/>
	<text transform="matrix(1 0 0 1 207.7627 96.0947)" fill="#231F20" font-family="'Helvetica'" font-size="13">Cerebellar nucleus cell </text>
	
		<line fill="none" stroke="#000000" stroke-width="0.5" stroke-linejoin="round" stroke-miterlimit="10" x1="355.854" y1="79.523" x2="363.979" y2="79.523"/>
	<text transform="matrix(1 0 0 1 86.2017 84.2905)" fill="#231F20" font-family="'Helvetica'" font-size="13">Dorsal motor nucleus of vagus motor neuron </text>
	
		<line fill="none" stroke="#000000" stroke-width="0.5" stroke-linejoin="round" stroke-miterlimit="10" x1="355.854" y1="67.715" x2="363.979" y2="67.715"/>
	<text transform="matrix(1 0 0 1 122.7822 72.4814)" fill="#231F20" font-family="'Helvetica'" font-size="13">Spinal cord ventral horn interneuron II </text>
	
		<line fill="none" stroke="#000000" stroke-width="0.5" stroke-linejoin="round" stroke-miterlimit="10" x1="355.854" y1="55.906" x2="363.979" y2="55.906"/>
	<text transform="matrix(1 0 0 1 120.6895 60.6772)" fill="#231F20" font-family="'Helvetica'" font-size="13">Spinal cord ventral horn interneuron IA</text>
	<text transform="matrix(1 0 0 1 337.0752 60.6772)" fill="#231F20" font-family="'Helvetica'" font-size="13"> </text>
	
		<line fill="none" stroke="#000000" stroke-width="0.5" stroke-linejoin="round" stroke-miterlimit="10" x1="355.854" y1="44.098" x2="363.979" y2="44.098"/>
	<text transform="matrix(1 0 0 1 115.0737 48.8452)" fill="#231F20" font-family="'Helvetica'" font-size="13">Spinal cord ventral horn interneuron V2 </text>
	
		<line fill="none" stroke="#000000" stroke-width="0.5" stroke-linejoin="round" stroke-miterlimit="10" x1="355.854" y1="32.29" x2="363.979" y2="32.29"/>
	<text transform="matrix(1 0 0 1 194.3979 37.0459)" fill="#231F20" font-family="'Helvetica'" font-size="13">Inferior colliculus neuron </text>
	<g>
		<path fill="none" stroke="#0000FF" stroke-linejoin="round" stroke-miterlimit="10" d="M355.854,822.474h0.108v-11.809h-0.108
			 M355.854,409.723h0.325v-11.809h-0.325 M355.854,645.565h1.95v-11.81h-1.95 M355.854,303.556h3.033v-11.808h-3.033
			 M355.854,728.115h4.441v-11.81h-4.441 M355.854,350.681h4.767v-11.7h-4.767 M355.854,445.04h5.2v-11.809h-5.2 M355.854,480.465
			h5.417v-11.809h-5.417 M355.854,551.206h5.742v-11.808h-5.742 M355.854,386.106h5.85v-11.808h-5.85 M355.962,816.516h5.85v-17.659
			h-5.958 M355.854,586.631h6.283v-11.808h-6.283 M355.854,504.081h6.283v-11.808h-6.283 M355.854,763.431h6.825v-11.699h-6.825
			 M361.054,439.189h3.575v-17.658h-8.775 M362.137,580.673h3.467v-17.657h-9.75 M355.854,327.173h11.05v-11.809h-11.05
			 M355.854,775.24h11.158v-17.659h-4.333 M355.854,669.181h11.267v-11.808h-11.267 M361.596,545.356h5.525V527.59h-11.267
			 M360.295,722.156h7.583v-17.658h-12.025 M355.854,621.948h13.867v-11.808h-13.867 M361.704,380.256h8.233V362.49h-14.083
			 M355.854,515.781h14.191v-17.658h-7.908 M355.854,692.69h14.408v-11.81h-14.408 M358.887,297.706h11.483v-17.767h-14.517
			 M361.812,807.74h8.992v-20.692h-14.95 M355.854,185.581h15.275v-11.7h-15.275 M364.629,430.306h7.908v-26.542h-16.358
			 M355.854,268.131h16.9v-11.7h-16.9 M361.271,474.506h11.483v-17.657h-16.9 M370.804,797.34h2.925v-30.875h-6.717 M365.604,571.79
			h9.858v-35.316h-8.341 M370.262,686.84h6.608v-23.616h-9.75 M355.854,739.923h21.125v-26.542h-9.1 M372.537,417.09h5.309v-45.717
			h-7.909 M375.462,554.131h2.492v-47.125h-7.909 M371.129,179.731h8.992v-17.658h-24.267 M373.729,781.849h8.017v-55.25h-4.767
			 M355.854,221.006h26.542v-11.808h-26.542 M369.721,616.099h13.434v-17.768h-27.3 M360.621,344.831h23.616v-23.616h-17.333
			 M370.371,288.823h14.841v-26.542h-12.458 M382.396,215.156h5.634V197.39h-32.175 M377.846,394.231h11.809v-61.208h-5.417
			 M377.954,530.516h12.892v-64.784h-18.092 M385.212,275.498h7.042v-30.875h-36.4 M376.871,675.031h15.816v-35.425h-34.883
			 M380.121,170.848h14.191v-20.583h-38.458 M381.746,754.224h16.25v-96.851h-5.309 M397.996,705.798h10.4v-98.583h-25.241
			 M390.846,498.123h19.5V363.681h-20.691 M355.854,114.84h56.225v-11.809h-56.225 M392.254,260.115h26.108v-27.3h-62.508
			 M394.312,160.556h29.25v-22.1h-67.708 M355.854,79.523h71.066V67.715h-71.066 M408.396,656.506h19.175V430.848h-17.225
			 M355.854,91.331h91V73.564H426.92 M427.57,543.731h27.3V246.465h-36.509 M454.871,395.098h25.025V206.273h-91.866
			 M423.562,149.506h73.559v151.125h-17.225 M355.854,55.906h168.025V44.098H355.854 M497.121,225.123h65.108v-98.475H355.854
			 M562.229,175.831h31.743V108.99H412.079 M446.854,82.448h237.792V50.056H523.879 M593.972,142.465h127.725V66.198h-37.05
			 M721.696,104.331h186.767V32.29H355.854"/>
	</g>
	<text transform="matrix(1 0 0 1 544.8926 865.4814)" fill="#231F20" font-family="'Helvetica'" font-size="13">Neuron distance (ephys based, au)</text>
</g>
</svg>
